<svg xmlns="http://www.w3.org/2000/svg" xmlns:xlink="http://www.w3.org/1999/xlink" width="500" zoomAndPan="magnify" viewBox="0 0 375 180.749997" height="241" preserveAspectRatio="xMidYMid meet" version="1.0"><defs><clipPath id="a861b7c76f"><path d="M 133 3.121094 L 297.804688 3.121094 L 297.804688 175 L 133 175 Z M 133 3.121094 " clip-rule="nonzero"/></clipPath><clipPath id="ad99dc124a"><path d="M 77 53 L 178 53 L 178 177.628906 L 77 177.628906 Z M 77 53 " clip-rule="nonzero"/></clipPath></defs><g clip-path="url(#a861b7c76f)"><path fill="#ff9900" d="M 279.859375 68.898438 C 272.101562 61.136719 262.625 55.699219 252.273438 52.917969 C 251.675781 49.992188 250.878906 47.117188 249.875 44.324219 C 244.335938 28.710938 233.046875 16.214844 218.082031 9.144531 C 209.65625 5.160156 200.6875 3.140625 191.429688 3.140625 C 184.332031 3.140625 177.371094 4.34375 170.730469 6.714844 L 169.851562 7.027344 L 169.746094 7.136719 C 154.625 12.757812 142.507812 23.898438 135.597656 38.519531 C 134.636719 40.445312 133.863281 42.289062 133.148438 44.089844 C 135.082031 43.933594 137.027344 43.835938 138.988281 43.835938 C 144.898438 43.835938 150.898438 44.613281 156.871094 46.128906 C 161.570312 37.609375 169.101562 31.179688 178.253906 27.925781 C 182.507812 26.398438 186.957031 25.628906 191.484375 25.628906 C 197.359375 25.628906 203.0625 26.914062 208.429688 29.453125 C 217.746094 33.855469 224.832031 41.527344 228.476562 51.101562 C 196.144531 53.898438 181.703125 75.070312 162.1875 103.707031 L 161.898438 104.128906 C 157.636719 110.378906 152.804688 117.460938 147.234375 125.050781 L 143.292969 130.417969 L 150.199219 131.609375 C 151.878906 131.898438 153.972656 132.265625 156.417969 132.265625 C 165.492188 132.265625 173.425781 127.058594 180.671875 116.355469 C 198.910156 89.480469 209.921875 73.261719 236.003906 73.261719 C 246.667969 73.261719 256.582031 77.355469 263.945312 84.8125 C 271.394531 92.261719 275.496094 102.183594 275.496094 112.753906 C 275.496094 123.324219 271.394531 133.246094 263.945312 140.695312 C 256.605469 148.035156 246.421875 152.246094 236.003906 152.246094 C 231.851562 152.246094 227.867188 151.617188 224.042969 150.34375 C 220.214844 149.1875 216.535156 147.378906 213.394531 145.113281 L 209.992188 142.65625 L 197.136719 161.160156 L 200.523438 163.511719 C 205.898438 167.238281 211.601562 170.050781 217.480469 171.875 C 223.605469 173.769531 229.839844 174.730469 236.003906 174.730469 C 252.539062 174.730469 268.113281 168.261719 279.859375 156.511719 C 291.542969 144.824219 297.976562 129.285156 297.976562 112.753906 C 297.976562 96.15625 291.542969 80.582031 279.859375 68.898438 Z M 279.859375 68.898438 " fill-opacity="1" fill-rule="nonzero"/></g><g clip-path="url(#ad99dc124a)"><path fill="#0099ff" d="M 174.566406 64.667969 C 169.28125 61 163.582031 58.1875 157.589844 56.296875 C 151.367188 54.40625 145.109375 53.449219 138.988281 53.449219 C 122.566406 53.449219 107.03125 59.878906 95.230469 71.566406 C 83.484375 83.316406 77.015625 98.890625 77.015625 115.421875 C 77.015625 131.953125 83.484375 147.527344 95.230469 159.277344 C 107.03125 170.964844 122.566406 177.394531 138.988281 177.394531 C 145.109375 177.394531 151.367188 176.4375 157.589844 174.546875 C 163.582031 172.65625 169.28125 169.84375 174.566406 166.175781 L 177.972656 163.8125 L 164.976562 145.339844 L 161.597656 147.78125 C 158.402344 150.082031 154.800781 151.882812 150.890625 153.128906 C 147.160156 154.3125 143.152344 154.910156 138.988281 154.910156 C 128.632812 154.910156 118.484375 150.699219 111.148438 143.359375 C 103.632812 135.847656 99.496094 125.929688 99.496094 115.421875 C 99.496094 104.914062 103.632812 94.992188 111.148438 87.480469 C 118.484375 80.140625 128.632812 75.929688 138.988281 75.929688 C 143.152344 75.929688 147.160156 76.53125 150.890625 77.714844 C 154.800781 78.960938 158.402344 80.757812 161.597656 83.0625 L 163.71875 84.59375 C 168.296875 78.179688 172.875 72.210938 177.757812 66.878906 Z M 174.566406 64.667969 " fill-opacity="1" fill-rule="nonzero"/></g></svg>